<svg width="18" height="40" viewBox="0 0 18 40" fill="none" xmlns="http://www.w3.org/2000/svg">
<path d="M0.848222 36.7318C0.848222 36.7318 0.848222 36.7783 0.848222 36.8015C0.848222 38.4985 4.59075 39.8932 9.19337 39.8932H9.28635C13.889 39.8932 17.6315 38.5217 17.6315 36.8248C17.6315 35.1279 17.6315 36.7783 17.6315 36.7551C17.8175 35.4766 18.7008 27.8055 15.7718 23.1332C12.8197 18.4608 12.2153 17.2056 12.7034 14.788C12.7732 14.4161 12.9126 14.0442 13.0754 13.7187C13.1916 13.5095 13.3311 13.2073 13.4705 12.8587C13.61 12.5332 13.7727 12.138 13.9122 11.7196C14.6328 9.5578 15.1675 6.41965 13.1916 4.11834C12.0293 2.7701 10.8438 2.28195 9.58854 2.18896C9.35608 2.18896 9.12363 2.18896 8.89117 2.18896C7.54293 2.35168 6.49688 2.74686 5.31136 4.11834C2.54514 7.37272 4.68373 12.2775 5.42759 13.742C5.59031 14.0907 5.72978 14.4394 5.79952 14.8113C6.28767 17.2288 5.66005 18.4841 2.70786 23.1564C-0.221072 27.8055 0.662258 35.4998 0.848222 36.7783V36.7318Z" fill="#FCCBA1"/>
<path d="M9.28567 2.3053C9.37866 2.3053 9.47164 2.3053 9.54138 2.3053C10.9361 2.42152 12.0286 3.00266 13.0282 4.18818C15.7247 7.34957 13.6093 12.2079 12.8887 13.6026C12.7028 13.9513 12.5865 14.3465 12.4936 14.7184C12.0054 17.2057 12.5865 18.4377 15.5852 23.203C18.4677 27.7591 17.6076 35.2442 17.4216 36.6854V36.7319C17.4216 36.7784 17.4216 36.7784 17.4216 36.8016C17.4216 38.3823 13.6791 39.7073 9.26243 39.7073H9.23918H9.21594C4.79929 39.7073 1.05676 38.3823 1.05676 36.8016C1.05676 35.221 1.05676 36.8017 1.05676 36.7784C1.05676 36.7552 1.05676 36.7319 1.05676 36.7319C0.847553 35.2674 0.0107126 27.7824 2.89316 23.2263C5.89183 18.4842 6.49621 17.2289 5.98481 14.7417C5.91508 14.3465 5.7756 13.9745 5.58964 13.6259C4.86903 12.2079 2.73044 7.37282 5.45016 4.21143C6.61244 2.86319 7.63524 2.49126 8.91375 2.35179C9.05322 2.35179 9.16945 2.35179 9.30892 2.35179M9.28567 2.14258C9.1462 2.14258 9.00673 2.14258 8.86726 2.16582C7.51902 2.32854 6.47297 2.72372 5.28745 4.0952C2.52123 7.34958 4.65982 12.2544 5.40367 13.7188C5.56639 14.0675 5.70587 14.4162 5.7756 14.7881C6.26376 17.2057 5.63613 18.4609 2.70719 23.1333C-0.221742 27.7824 0.684834 35.4767 0.847552 36.7319C0.847552 36.7552 0.847552 36.7784 0.847552 36.8016C0.847552 38.4986 4.59008 39.8701 9.19269 39.8701C13.7953 39.8701 9.21594 39.8701 9.23918 39.8701C9.23918 39.8701 9.26243 39.8701 9.28567 39.8701C13.8883 39.8701 17.6308 38.4986 17.6308 36.8016C17.6308 35.1047 17.6308 36.7552 17.6308 36.7319C17.7935 35.4767 18.7001 27.7824 15.7712 23.1333C12.819 18.4609 12.2146 17.2057 12.7028 14.7881C12.7725 14.4162 12.912 14.0443 13.0747 13.7188C13.8186 12.2776 15.9804 7.34958 13.1909 4.0952C12.0286 2.72372 10.8431 2.25881 9.58787 2.16582C9.49488 2.16582 9.4019 2.16582 9.30892 2.16582L9.28567 2.14258Z" fill="#F8A790"/>
<path d="M11.6274 11.4274C12.1976 11.2736 12.489 10.5158 12.2783 9.73496C12.0676 8.95409 11.4346 8.44578 10.8644 8.59962C10.2942 8.75346 10.0028 9.5112 10.2135 10.2921C10.4242 11.073 11.0572 11.5813 11.6274 11.4274Z" fill="white"/>
<path d="M11.8192 11.13C12.1511 11.0946 12.3737 10.6312 12.3164 10.095C12.2591 9.55887 11.9436 9.15299 11.6117 9.18846C11.2798 9.22393 11.0572 9.68732 11.1145 10.2235C11.1718 10.7596 11.4873 11.1655 11.8192 11.13Z" fill="#612728"/>
<path d="M11.1329 9.81122C11.2613 9.80898 11.3634 9.6927 11.3609 9.5515C11.3584 9.4103 11.2524 9.29766 11.124 9.2999C10.9957 9.30214 10.8936 9.41842 10.8961 9.55962C10.8985 9.70081 11.0046 9.81346 11.1329 9.81122Z" fill="white"/>
<path d="M11.7492 13.4863C11.9817 13.5096 12.1909 13.4863 12.3769 13.3469C12.4234 13.3236 12.4699 13.2771 12.4931 13.2074C12.5396 13.1377 12.4931 13.0447 12.4001 13.0214C12.0747 12.9749 11.7725 12.8355 11.4703 12.696C11.3308 12.6263 11.2146 12.5333 11.0751 12.4635C11.0286 12.4635 10.9821 12.417 10.9357 12.4635C10.9124 12.4635 10.8892 12.5333 10.8892 12.5798C10.8892 12.789 10.9589 12.9982 11.0984 13.1609C11.2611 13.3701 11.4935 13.4631 11.726 13.4863H11.7492Z" fill="#DE4C2D"/>
<path d="M13.4937 12.0449C13.5402 11.9054 13.5402 11.7659 13.4937 11.6729C13.4007 11.4637 13.3077 11.2778 13.1915 11.0918C13.1915 11.0685 13.1682 11.0453 13.145 11.0221C13.0985 11.0221 13.052 10.9988 13.0288 11.0221C13.0055 11.0221 12.9823 11.0918 13.0055 11.1383C13.0055 11.208 13.0288 11.2778 13.052 11.3707C13.0985 11.5102 13.145 11.6497 13.1915 11.7892C13.238 11.9054 13.1915 11.9984 13.1218 12.0913C13.0753 12.1378 13.0055 12.1843 12.9358 12.2308C12.8893 12.2773 12.8428 12.3238 12.7963 12.3935C12.7731 12.4633 12.7963 12.5098 12.8661 12.5098C12.9125 12.5098 12.959 12.5098 13.0055 12.5098C13.2612 12.44 13.4239 12.3006 13.5169 12.0913L13.4937 12.0449Z" fill="#ED8D5A"/>
<path d="M8.54202 12.5567C9.02987 12.5567 9.42535 12.2861 9.42535 11.9523C9.42535 11.6185 9.02987 11.3479 8.54202 11.3479C8.05417 11.3479 7.65869 11.6185 7.65869 11.9523C7.65869 12.2861 8.05417 12.5567 8.54202 12.5567Z" fill="#FDB389"/>
<path d="M0.847986 36.7335C0.847986 36.7567 0.847986 36.78 0.847986 36.8032C0.847986 38.5001 4.59051 39.8949 9.19313 39.8949C13.7957 39.8949 9.21637 39.8949 9.23962 39.8949C9.26286 39.8949 9.26286 39.8949 9.28611 39.8949C13.8887 39.8949 17.6313 38.5234 17.6313 36.8265C17.6313 35.1296 17.6313 36.78 17.6313 36.7567C17.701 36.2221 17.9102 34.5019 17.887 32.3401C15.4694 32.9445 12.4707 33.3164 9.21637 33.3164C5.962 33.3164 3.00982 32.9677 0.592285 32.3633C0.592285 34.5252 0.778249 36.2453 0.847986 36.78V36.7335Z" fill="#EEB105"/>
<path d="M0.592285 32.3167C3.00982 32.921 6.00849 33.5254 9.23962 33.5254C12.494 33.5254 15.4694 32.8978 17.8869 32.2934C17.8869 29.7596 17.5383 26.5983 16.3063 24.0645C16.1435 23.7391 15.9576 23.4136 15.7716 23.0882C14.0049 20.2987 13.0751 18.718 12.7264 17.393C11.6804 17.6952 10.5879 17.8579 9.42558 17.8579C8.26331 17.8579 6.93831 17.6487 5.79928 17.3C5.4506 18.6483 4.54402 20.229 2.73087 23.0882C2.54491 23.3904 2.35894 23.7158 2.19622 24.0412C0.964212 26.575 0.61553 29.7364 0.61553 32.2934L0.592285 32.3167Z" fill="#EEB105"/>
<g opacity="0.2">
<path d="M6.05469 13.323C6.33363 13.7182 6.54284 14.1366 6.65907 14.5783" stroke="white" stroke-width="0.929821" stroke-linecap="round" stroke-linejoin="round"/>
<path d="M5.17146 20.9246C4.19515 22.482 2.56797 25.225 2.28902 26.5965C1.98683 28.0609 1.47543 30.6412 1.68464 33.5701" stroke="white" stroke-width="0.929821" stroke-linecap="round" stroke-linejoin="round" stroke-dasharray="3.37 1.63 6.74 3.37"/>
<path d="M1.89355 35.2439C1.96329 35.6856 2.07952 36.1505 2.19575 36.6154" stroke="white" stroke-width="0.929821" stroke-linecap="round" stroke-linejoin="round"/>
</g>
<path d="M10.6339 8.44103C10.7502 8.44103 10.8896 8.39454 11.0059 8.34805C11.0756 8.32481 11.1221 8.27832 11.1686 8.23182C11.2616 8.1156 11.3081 7.99937 11.2616 7.8599C11.2151 7.72042 11.0756 7.65069 10.9361 7.62744C10.8431 7.62744 10.7734 7.62744 10.6804 7.67393C10.4712 7.76691 10.262 7.88314 10.076 8.02261C10.0296 8.06911 9.95982 8.1156 9.93657 8.18533C9.86684 8.30156 9.91333 8.41779 10.0296 8.46428C10.1225 8.48753 10.2155 8.48752 10.3085 8.48752C10.355 8.48752 10.4015 8.48752 10.448 8.48752C10.4945 8.48752 10.5642 8.48753 10.6107 8.46428L10.6339 8.44103Z" fill="#5F4637"/>
<path d="M13.8419 8.25592C13.7257 8.25592 13.6094 8.20943 13.5164 8.16294C13.47 8.1397 13.4002 8.09321 13.3537 8.04671C13.2607 7.93049 13.2375 7.81426 13.284 7.67479C13.3305 7.53531 13.4467 7.46558 13.5862 7.46558C13.6559 7.46558 13.7489 7.46558 13.8186 7.51207C14.0278 7.60505 14.1906 7.72128 14.3765 7.884C14.423 7.93049 14.4695 7.97698 14.516 8.04671C14.5857 8.16294 14.516 8.27917 14.423 8.30242C14.33 8.32566 14.2371 8.30242 14.1673 8.30242C14.1208 8.30242 14.0743 8.30242 14.0278 8.30242C13.9814 8.30242 13.9349 8.30241 13.8651 8.27917L13.8419 8.25592Z" fill="#5F4637"/>
<path d="M15.3535 3.76923C14.9351 3.30432 14.354 2.97888 13.7961 2.72318C13.6566 2.65344 13.3544 2.58371 13.2382 2.46748C13.0755 2.30476 13.1917 2.25827 13.2847 2.00257C13.5869 1.02626 12.6338 0.584592 11.8202 0.514855C10.8439 0.421873 9.77461 0.724065 8.91453 1.18898C8.7983 1.25871 8.51936 1.49117 8.37988 1.46792C8.31015 1.46792 8.14743 1.16573 8.10094 1.09599C7.70576 0.724065 7.17112 0.770556 6.70621 0.95652C6.31103 1.14248 5.98559 1.42143 5.75314 1.79336C5.52068 2.21178 5.56718 2.49072 5.12551 2.67669C3.8935 3.18809 3.31236 4.1644 3.03341 5.44291C2.8242 6.44246 2.80096 7.11658 3.03341 8.0929C3.05666 8.20912 3.10315 8.37184 3.14964 8.55781C3.3821 10.2082 4.1492 12.3003 4.61411 12.2306C6.12507 12.0679 6.26454 10.2082 6.26454 10.2082C6.26454 10.2082 6.47375 10.7196 7.14787 9.99903C7.58954 9.53412 7.45006 8.3486 7.31059 7.58149C7.63603 7.58149 7.96146 7.55825 8.17067 7.44202C9.00751 7.04685 8.72857 6.5122 8.82155 6.46571C9.33295 6.16352 9.93733 7.0236 11.1229 6.93062C11.6807 6.88413 12.1224 6.74466 12.5873 6.44246C12.8895 6.23325 13.215 6.30299 13.5869 6.2565C15.3768 6.14027 16.5158 5.04773 15.3303 3.72274L15.3535 3.76923Z" fill="#5D4334"/>
<path d="M12.7959 3.62891C13.3771 3.69864 13.9582 3.86136 14.4929 4.09382C14.6556 4.16355 14.7951 4.23329 14.9345 4.34952C15.074 4.46574 15.1205 4.60522 15.0508 4.74469C15.0043 4.83767 14.8648 4.90741 14.7718 4.90741C14.6091 4.90741 14.4464 4.86092 14.2837 4.79118C13.8652 4.60522 13.4468 4.41925 13.0284 4.30303C12.8424 4.25653 12.6332 4.1868 12.4473 4.16355C12.331 4.16355 12.2148 4.11706 12.0986 4.11706C11.8429 4.09382 11.6104 4.11706 11.3547 4.16355C11.3082 4.16355 11.2385 4.21004 11.192 4.23329C11.1455 4.25653 11.0758 4.27978 11.0293 4.23329C10.9828 4.1868 11.006 4.11706 11.0293 4.07057C11.099 3.9311 11.2385 3.86136 11.3547 3.79163C11.6337 3.6754 11.9591 3.62891 12.2613 3.62891C12.424 3.62891 12.61 3.62891 12.7727 3.65215L12.7959 3.62891Z" fill="#70563F"/>
<path d="M9.7508 4.51271C10.3319 4.65219 10.8898 4.83815 11.4012 5.1171C11.5407 5.18683 11.7034 5.27981 11.8197 5.39604C11.9359 5.51227 11.9824 5.67499 11.9126 5.79122C11.8661 5.8842 11.7267 5.93069 11.6104 5.93069C11.4477 5.93069 11.285 5.83771 11.1455 5.76797C10.7504 5.55876 10.3552 5.32631 9.93677 5.16359C9.75081 5.09385 9.56484 5.02411 9.35563 4.97762C9.2394 4.95438 9.12318 4.90789 9.00695 4.88464C8.75125 4.83815 8.51879 4.8149 8.26309 4.86139C8.19336 4.86139 8.14686 4.88464 8.10037 4.90789C8.03064 4.93113 7.98415 4.93113 7.93765 4.88464C7.89116 4.83815 7.93765 4.76841 7.93765 4.72192C8.03064 4.60569 8.14686 4.53596 8.28634 4.48947C8.58853 4.39648 8.89072 4.37324 9.19291 4.41973C9.35563 4.41973 9.5416 4.44298 9.70431 4.48947L9.7508 4.51271Z" fill="#70563F"/>
<path d="M10.3551 2.30433C10.727 2.04863 11.1222 1.86267 11.5871 1.74644C11.7033 1.7232 11.8428 1.69995 11.9823 1.69995C12.1217 1.69995 12.2612 1.79293 12.3077 1.93241C12.3542 2.02539 12.3077 2.14162 12.2612 2.21135C12.1682 2.30433 12.052 2.35083 11.9125 2.37407C11.5638 2.44381 11.2384 2.53679 10.913 2.67626C10.7735 2.746 10.634 2.79249 10.4945 2.88547C10.4248 2.93196 10.3318 2.97845 10.2621 3.02495C10.1226 3.14117 9.98314 3.28065 9.89016 3.44336C9.89016 3.48986 9.86691 3.53635 9.84366 3.58284C9.84366 3.62933 9.82042 3.67582 9.75068 3.65257C9.70419 3.65257 9.6577 3.58284 9.6577 3.53635C9.61121 3.39687 9.63446 3.28065 9.6577 3.16442C9.72744 2.90872 9.86691 2.72275 10.0529 2.56003C10.1459 2.46705 10.2388 2.37407 10.3551 2.30433Z" fill="#70563F"/>
<path d="M14.3808 9.87208C14.4703 9.13287 14.2432 8.49735 13.8736 8.45262C13.5039 8.40789 13.1318 8.97089 13.0423 9.71011C12.9529 10.4493 13.18 11.0848 13.5496 11.1296C13.9192 11.1743 14.2914 10.6113 14.3808 9.87208Z" fill="white"/>
<path d="M14.3885 9.91338C14.4599 9.41781 14.353 8.99232 14.1497 8.96302C13.9464 8.93373 13.7237 9.31171 13.6523 9.80728C13.5808 10.3028 13.6878 10.7283 13.8911 10.7576C14.0944 10.7869 14.3171 10.4089 14.3885 9.91338Z" fill="#612728"/>
<path d="M13.9485 9.19179C13.9645 9.06442 13.9156 8.95334 13.8392 8.94369C13.7628 8.93403 13.6878 9.02946 13.6717 9.15683C13.6556 9.2842 13.7045 9.39528 13.781 9.40493C13.8574 9.41459 13.9324 9.31916 13.9485 9.19179Z" fill="white"/>
</svg>
