<svg width="18" height="40" viewBox="0 0 18 40" fill="none" xmlns="http://www.w3.org/2000/svg">
<path d="M1.42264 24.1621C1.42264 24.1621 0.183116 7.16629 3.09123 3.35236C5.99935 -0.461564 8.09701 0.539592 9.3127 0.849474C9.3127 0.849474 13.222 -0.413893 14.0324 4.13898C14.8429 8.69186 13.9848 21.5162 13.9848 21.5162L1.42264 24.1621Z" fill="#DF5336"/>
<path d="M4.09218 11.266C4.09218 11.266 3.68695 18.1549 3.63928 19.7282C3.5916 21.3014 5.11717 21.6351 5.11717 21.6351L6.83344 14.6747L4.09218 11.2422V11.266Z" fill="#632727"/>
<path d="M14.5565 8.93091C14.5565 8.93091 14.9141 19.8721 14.9617 21.8029C15.0094 23.7337 13.5554 22.7087 13.5554 22.7087L11.2432 12.0774L14.5565 8.93091Z" fill="#632727"/>
<path d="M15.5819 22.7314C12.5546 17.9401 11.9349 16.6529 12.4355 14.1739C12.936 11.6948 12.65 13.4111 12.8168 13.0774C13.5796 11.5995 15.7965 6.54604 12.936 3.20885C11.7203 1.80247 10.6715 1.39724 9.26513 1.23038C7.85874 1.06352 8.78839 1.20654 8.55002 1.23038C7.26282 1.34957 6.04713 1.8263 4.85528 3.20885C2.01867 6.54604 4.21168 11.5757 4.97446 13.0774C5.14132 13.4349 5.28434 13.7925 5.35585 14.1739C5.85643 16.6529 5.21283 17.9401 2.20937 22.7314C-0.794102 27.4988 0.135543 35.3889 0.302402 36.6761C0.302402 36.6999 0.302402 36.7237 0.302402 36.7476C0.302402 38.4877 4.14017 39.8941 8.8599 39.8941C13.5796 39.8941 8.88374 39.8941 8.90757 39.8941C8.90757 39.8941 8.93141 39.8941 8.95525 39.8941C13.675 39.8941 17.5127 38.4877 17.5127 36.7476C17.5127 35.0075 17.5127 36.6999 17.5127 36.6761C17.6796 35.3889 18.6093 27.4988 15.6058 22.7314H15.5819Z" fill="#FCCBA1"/>
<path d="M8.85999 1.37453C8.97917 1.37453 9.1222 1.37453 9.26522 1.37453C10.5763 1.51755 11.6251 1.89895 12.8169 3.28149C15.582 6.52333 13.4129 11.5053 12.6739 12.9355C12.4832 13.2931 12.364 13.6983 12.2687 14.0797C11.7681 16.6302 12.364 17.8936 15.439 22.7802C18.3948 27.4523 17.5128 35.1278 17.3221 36.6057V36.6534C17.3221 36.701 17.3221 36.701 17.3221 36.7249C17.3221 38.3458 13.4844 39.7045 8.95534 39.7045H8.9315H8.90766H8.88383H8.85999C4.33095 39.7045 0.493187 38.3458 0.493187 36.7249C0.493187 35.104 0.493187 36.7249 0.493187 36.701C0.493187 36.6772 0.493187 36.6534 0.493187 36.6534C0.278653 35.1516 -0.57948 27.4761 2.37631 22.804C5.45129 17.9413 6.07106 16.6541 5.54664 14.1035C5.47513 13.6983 5.33211 13.3169 5.14141 12.9593C4.40246 11.5053 2.20945 6.54717 4.99839 3.30533C6.02338 2.08964 7.14372 1.49372 8.57394 1.37453C8.66929 1.37453 8.76464 1.37453 8.83615 1.37453M8.85999 1.20768C8.76464 1.20768 8.66929 1.20768 8.57394 1.20768C7.28674 1.32686 6.07105 1.8036 4.8792 3.18615C2.04259 6.52333 4.2356 11.5529 4.99839 13.0547C5.16525 13.4122 5.30827 13.7698 5.37978 14.1512C5.88036 16.6302 5.23676 17.9174 2.23329 22.7087C-0.770176 27.4761 0.159469 35.3662 0.326328 36.6534C0.326328 36.6772 0.326328 36.701 0.326328 36.7249C0.326328 38.465 4.16409 39.8714 8.88383 39.8714C13.6036 39.8714 8.90766 39.8714 8.9315 39.8714C8.9315 39.8714 8.95534 39.8714 8.97917 39.8714C13.6989 39.8714 17.5367 38.465 17.5367 36.7249C17.5367 34.9848 17.5367 36.6772 17.5367 36.6534C17.7035 35.3662 18.6332 27.4761 15.6297 22.7087C12.6024 17.9174 11.9826 16.6302 12.4832 14.1512C12.5547 13.7698 12.6978 13.3884 12.8646 13.0547C13.6274 11.5768 15.8442 6.52333 12.9838 3.18615C11.7681 1.77976 10.7193 1.37454 9.31289 1.20768C9.16987 1.20768 9.02685 1.18384 8.88383 1.18384L8.85999 1.20768Z" fill="#F8A790"/>
<path d="M17.489 36.6767C17.489 36.7006 17.489 36.7244 17.489 36.7483C17.489 38.4884 13.6513 39.8947 8.93154 39.8947C4.21181 39.8947 8.90771 39.8947 8.88387 39.8947C8.86003 39.8947 8.86003 39.8947 8.83619 39.8947C4.11646 39.8947 0.278696 38.4884 0.278696 36.7483C0.278696 35.0082 0.278696 36.7006 0.278696 36.6767C0.207185 36.1285 -0.00735005 34.3407 0.016487 32.1477C2.49554 32.7675 5.57052 33.1489 8.90771 33.1489C12.2449 33.1489 15.2722 32.7913 17.7512 32.1715C17.7512 34.3884 17.5606 36.1523 17.489 36.7006V36.6767Z" fill="#4E2BF3"/>
<path d="M0.0638534 31.123C-0.0553319 33.7928 0.230713 36.0573 0.302224 36.6771C0.302224 36.7009 0.302224 36.7248 0.302224 36.7486C0.302224 38.4887 4.13999 39.8951 8.85972 39.8951C13.5795 39.8951 8.88356 39.8951 8.9074 39.8951C8.9074 39.8951 8.93123 39.8951 8.95507 39.8951C13.6748 39.8951 17.5126 38.4887 17.5126 36.7486C17.5126 35.0085 17.5126 36.7009 17.5126 36.6771C17.6079 36.0573 17.8463 34.0073 17.7748 31.5044C15.3434 32.2672 12.5068 32.6963 9.50332 32.6963C6.49986 32.6963 2.75744 32.1242 0.08769 31.123H0.0638534Z" fill="#14996E"/>
<path d="M17.7511 31.5041C15.3197 32.2669 12.4831 32.6959 9.4796 32.6959C6.47613 32.6959 2.73371 32.1239 0.0639648 31.1227C0.18315 28.3576 0.683728 25.1396 2.2093 22.7321C3.99708 19.8954 4.9744 18.1553 5.35579 16.7966C5.80869 16.9635 6.19009 17.3449 6.59532 17.5117C7.21508 17.7501 7.88252 17.7263 8.62146 17.7263C9.86099 17.7263 11.2912 17.8455 12.4592 16.9397C12.7214 17.917 13.2935 19.0373 14.2708 20.6344C14.2708 20.7059 15.1528 22.0646 15.1528 22.0646C15.2958 22.2792 15.4389 22.4937 15.5819 22.7321C17.179 25.2588 17.6795 28.6675 17.7511 31.5041Z" fill="#14996E"/>
<path d="M12.4592 16.7014C12.4592 16.7014 12.3877 16.8921 12.0301 17.1543C11.6725 17.4165 11.458 17.4165 11.458 17.4165C11.458 17.4165 12.5545 19.5142 12.6975 19.3235C13.1981 18.7276 12.5307 17.059 12.4353 16.7253L12.4592 16.7014Z" fill="white"/>
<path d="M5.35527 16.7725C5.35527 16.7725 8.21572 17.3922 9.90815 17.5591C11.6006 17.7259 11.4814 17.4161 11.4814 17.4161C11.4814 17.4161 11.2192 19.4184 10.7424 19.6567C10.2657 19.8951 4.95004 17.13 5.37911 16.7725H5.35527Z" fill="white"/>
<path d="M14.8193 8.04779C14.8193 8.04779 14.0327 7.09431 12.8408 7.42803" stroke="#612728" stroke-width="0.23837" stroke-linecap="round" stroke-linejoin="round"/>
<path d="M9.16992 8.215C9.16992 8.215 9.88503 7.21385 11.1007 7.45222" stroke="#612728" stroke-width="0.23837" stroke-linecap="round" stroke-linejoin="round"/>
<path d="M11.1942 11.1398C11.757 11.0026 12.0539 10.2382 11.8575 9.43241C11.6611 8.62663 11.0456 8.08462 10.4829 8.22181C9.92008 8.359 9.6231 9.12343 9.81953 9.92922C10.016 10.735 10.6314 11.277 11.1942 11.1398Z" fill="white"/>
<path d="M11.4281 10.6019C11.7556 10.5692 11.9765 10.0967 11.9216 9.54653C11.8667 8.99634 11.5567 8.57683 11.2292 8.60951C10.9017 8.6422 10.6807 9.11471 10.7357 9.6649C10.7906 10.2151 11.1006 10.6346 11.4281 10.6019Z" fill="#612728"/>
<path d="M10.8039 9.245C10.9223 9.24334 11.0167 9.12462 11.0147 8.97982C11.0127 8.83502 10.915 8.71898 10.7965 8.72064C10.6781 8.72229 10.5837 8.84101 10.5857 8.98581C10.5877 9.13061 10.6854 9.24665 10.8039 9.245Z" fill="white"/>
<path d="M14.1651 9.54331C14.2568 8.78528 14.0239 8.1336 13.6449 8.08773C13.2659 8.04187 12.8843 8.61919 12.7926 9.37722C12.7008 10.1353 12.9337 10.7869 13.3127 10.8328C13.6917 10.8787 14.0734 10.3013 14.1651 9.54331Z" fill="white"/>
<path d="M14.1903 9.5888C14.2635 9.08062 14.1539 8.64431 13.9454 8.61426C13.7369 8.58422 13.5086 8.97182 13.4353 9.48C13.3621 9.98818 13.4717 10.4245 13.6802 10.4545C13.8887 10.4846 14.1171 10.097 14.1903 9.5888Z" fill="#612728"/>
<path d="M13.7394 8.84819C13.7559 8.71758 13.7058 8.60367 13.6274 8.59377C13.5491 8.58387 13.4722 8.68173 13.4557 8.81234C13.4392 8.94295 13.4893 9.05685 13.5677 9.06675C13.646 9.07665 13.7229 8.9788 13.7394 8.84819Z" fill="white"/>
<path d="M11.6967 13.2925C11.8874 13.3163 12.0543 13.2925 12.1973 13.1971C12.245 13.1971 12.2688 13.1256 12.2927 13.078C12.3165 13.0064 12.2927 12.9349 12.2211 12.9349C11.9589 12.8873 11.7206 12.7919 11.4822 12.6727C11.3869 12.6251 11.2677 12.5535 11.1723 12.482C11.1485 12.482 11.1008 12.4582 11.077 12.482C11.0531 12.482 11.0293 12.5535 11.0293 12.5774C11.0293 12.7442 11.077 12.9111 11.1962 13.0541C11.3392 13.221 11.506 13.3163 11.6967 13.3163V13.2925Z" fill="#DE4C2D"/>
<path d="M13.151 11.6949C13.1987 11.5519 13.1987 11.4089 13.151 11.3135C13.0556 11.099 12.9603 10.9083 12.8649 10.7176C12.8649 10.6938 12.8411 10.6699 12.8173 10.6461C12.7696 10.6461 12.7219 10.6223 12.6981 10.6461C12.6981 10.6461 12.6504 10.7176 12.6742 10.7653C12.6742 10.8368 12.6981 10.9083 12.7219 11.0036C12.7696 11.1467 12.8173 11.2897 12.8649 11.4327C12.9126 11.5519 12.8649 11.6472 12.7934 11.7426C12.7458 11.7903 12.6742 11.8379 12.6266 11.8856C12.5789 11.9333 12.5312 11.981 12.4835 12.0525C12.4597 12.124 12.4835 12.1717 12.5551 12.1717C12.6027 12.1717 12.6504 12.1717 12.6742 12.1717C12.9365 12.1002 13.1033 11.9571 13.1748 11.7426L13.151 11.6949Z" fill="#ED8D5A"/>
<path d="M9.24135 12.5296C9.72845 12.5296 10.1233 12.2521 10.1233 11.9098C10.1233 11.5675 9.72845 11.29 9.24135 11.29C8.75425 11.29 8.35938 11.5675 8.35938 11.9098C8.35938 12.2521 8.75425 12.5296 9.24135 12.5296Z" fill="#FDB389"/>
<g opacity="0.2">
<path d="M5.80859 13.1484C6.09464 13.5537 6.30917 13.9827 6.42836 14.4356" stroke="white" stroke-width="0.953482" stroke-linecap="round" stroke-linejoin="round"/>
<path d="M4.90255 20.9431C3.90139 22.5402 2.2328 25.353 1.94676 26.7594C1.63688 28.2611 1.11246 30.907 1.32699 33.9105" stroke="white" stroke-width="0.953482" stroke-linecap="round" stroke-linejoin="round" stroke-dasharray="3.46 1.67 6.91 3.46"/>
<path d="M1.54199 35.627C1.6135 36.0799 1.73269 36.5566 1.85187 37.0333" stroke="white" stroke-width="0.953482" stroke-linecap="round" stroke-linejoin="round"/>
</g>
<path d="M10.767 2.04198C10.767 2.04198 8.28793 0.0158283 6.50015 11.3861C5.68969 16.5111 5.73737 20.0389 6.04725 22.375" stroke="#E1603B" stroke-width="0.23837" stroke-linecap="round" stroke-linejoin="round"/>
<path d="M11.1001 3.59134C11.1001 3.59134 9.47916 4.13959 8.31115 12.5064C7.14313 20.8732 7.85825 24.7586 7.66755 25.0923C7.47685 25.4261 7.07162 25.5929 6.45186 25.4737C5.8321 25.3546 1.94666 24.4964 1.80364 24.2342C1.66061 23.972 1.25538 24.0197 1.44608 23.2569C1.63678 22.4941 0.56411 11.5052 3.63909 3.90122C4.3542 2.11344 6.85709 0.778564 7.59604 0.778564C8.33499 0.778564 11.1001 3.61518 11.1001 3.61518V3.59134Z" fill="#E1603B"/>
<path d="M2.39981 19.2757C2.39981 19.2757 2.7097 8.02465 4.59282 5.02118C6.47595 2.01771 7.50094 1.66016 7.76315 1.66016C8.02536 1.66016 5.80851 6.16536 5.64165 6.59443C5.47479 7.02349 2.37598 19.2757 2.37598 19.2757H2.39981Z" fill="#DF5336"/>
<path d="M8.12091 3.99658C8.12091 3.99658 6.83371 5.66518 6.45231 7.14307C6.07092 8.62097 6.47615 7.42912 7.14359 6.73784C7.81103 6.04657 6.42848 7.71517 5.90406 12.6494C5.37965 17.5837 5.40349 17.3215 5.40349 17.3215" stroke="#EA8A44" stroke-width="0.23837" stroke-linecap="round" stroke-linejoin="round"/>
<path d="M15.2485 9.95511L15.177 22.0643C14.8433 21.5399 14.5572 21.087 14.295 20.6341C14.0805 18.4888 14.152 14.365 14.1758 11.2185C14.2235 4.25806 9.05087 2.58947 9.05087 2.58947L8.02588 1.0639C8.02588 1.0639 10.1474 0.539482 11.1724 0.801689C15.4392 1.87436 15.2247 9.95511 15.2247 9.95511H15.2485Z" fill="#E1603B"/>
<path d="M11.0293 1.54102C11.0293 1.54102 12.2688 2.08927 13.0078 3.54333C15.5822 8.5491 14.6287 16.606 14.6287 16.606" stroke="#EA8A44" stroke-width="0.23837" stroke-linecap="round" stroke-linejoin="round"/>
</svg>
