<svg width="151" height="74" viewBox="0 0 151 74" fill="none" xmlns="http://www.w3.org/2000/svg">
<path d="M150.041 11.7861L150.143 61.3299C150.156 67.5381 145.197 72.5521 139.219 72.5644L11.8246 72.8272C5.85066 72.8395 0.935439 67.8495 0.922624 61.6378L0.820411 12.094C0.807618 5.88583 5.76594 0.871813 11.7435 0.859481L139.07 0.596795C145.112 0.584332 150.028 5.64305 150.041 11.7861Z" fill="#EAEAEA" stroke="white" stroke-width="0.939865"/>
<path opacity="0.6" d="M148.908 16.2548L148.998 59.8885C149.011 66.3046 143.85 71.5926 137.605 71.6054L121.958 71.6377C115.714 71.6505 110.531 66.384 110.518 59.9679L110.428 16.3342C110.415 9.91822 115.575 4.63037 121.82 4.61735L137.467 4.58507C143.712 4.57219 148.895 9.83875 148.908 16.2548Z" fill="white" stroke="white" stroke-width="0.939865"/>
<g opacity="0.2">
<path d="M1.7179 56.7573L1.62788 13.1229C1.61413 6.45748 6.97525 0.94915 13.4894 0.935711L29.1367 0.903429C35.6508 0.88999 41.0346 6.37615 41.0483 13.0416L41.1384 56.6759C41.1521 63.3413 35.791 68.8497 29.2769 68.8631L13.6296 68.8954C7.11546 68.9088 1.73166 63.4227 1.7179 56.7573Z" fill="#BABABA"/>
</g>
<g opacity="0.2">
<path d="M6.75506 56.7444L6.66504 13.11C6.65129 6.4446 12.0124 0.936268 18.5265 0.922829L134.908 0.682726C141.422 0.669287 146.805 6.15545 146.819 12.8209L146.909 56.4552C146.923 63.1206 141.562 68.629 135.048 68.6424L18.6667 68.8825C12.1526 68.8959 6.76882 63.4098 6.75506 56.7444Z" fill="#BABABA"/>
</g>
<g opacity="0.2">
<path d="M150.108 11.9912L150.211 61.535C150.223 67.6763 145.262 72.7572 139.286 72.7695L11.8922 73.0323C5.91461 73.0446 0.935569 68.0511 0.922762 61.843L0.820549 12.2992C0.80789 6.15618 5.70254 1.07725 11.7437 1.0647L139.138 0.801873C145.116 0.789541 150.095 5.78305 150.108 11.9912ZM149.705 11.992C149.693 6.03933 144.982 1.22439 139.139 1.23644L11.7446 1.49927C5.90108 1.51141 1.2116 6.34571 1.22387 12.2983L1.32608 61.8422C1.33836 67.7948 6.04775 72.6097 11.8913 72.5977L139.286 72.3349C145.129 72.3229 149.819 67.4885 149.807 61.5358L149.705 11.992Z" fill="white" stroke="white" stroke-width="0.939865"/>
</g>
<g opacity="0.2">
<path d="M1.65945 60.9481L1.56021 12.8472C1.54745 6.66284 6.43947 1.63649 12.4835 1.62402L138.334 1.36438C144.378 1.35191 149.29 6.35803 149.303 12.5424L149.402 60.6433C149.415 66.8277 144.523 71.8541 138.479 71.8665L12.6289 72.1262C6.58492 72.1386 1.67207 67.0638 1.65945 60.9481Z" stroke="white" stroke-width="0.939865" stroke-miterlimit="10" stroke-linecap="round" stroke-dasharray="127.99 127.99"/>
</g>
<path d="M72.9648 66.1073L72.8437 7.39403C72.8405 5.83005 74.0102 4.55328 75.4489 4.55031C76.8876 4.54734 78.0626 5.81928 78.0658 7.38326L78.1869 66.0965C78.1901 67.6605 77.0205 68.9372 75.5817 68.9402C74.143 68.9432 72.9681 67.6712 72.9648 66.1073Z" fill="black"/>
<path opacity="0.5" d="M72.9636 65.6288L72.8445 7.87426C72.8407 6.04616 73.8949 4.55441 75.1924 4.55173C76.49 4.54906 77.5503 6.03644 77.5541 7.86455L77.6732 65.6191C77.677 67.4472 76.6228 68.939 75.3253 68.9416C74.0277 68.9443 72.9674 67.4569 72.9636 65.6288Z" stroke="white" stroke-opacity="0.3" stroke-width="0.939865" stroke-miterlimit="10" stroke-linecap="round" stroke-dasharray="281.96 281.96"/>
<path opacity="0.2" d="M74.5482 6.89648L74.6711 66.4513" stroke="white" stroke-width="1.87973" stroke-miterlimit="10" stroke-linecap="round"/>
<path opacity="0.2" d="M75.2779 50.8682L75.3096 66.2184" stroke="white" stroke-width="4.69933" stroke-miterlimit="10" stroke-linecap="round"/>
</svg>
